<?xml version="1.0" encoding="UTF-8"?>
<svg id="Layer_1" data-name="Layer 1" xmlns="http://www.w3.org/2000/svg" viewBox="0 0 636.76 291.06">
  <text transform="translate(158.37 103.71)" style="fill: #fff; font-family: Bahnschrift, Bahnschrift; font-size: 35.24px; font-variation-settings: &apos;wght&apos; 400, &apos;wdth&apos; 100;"><tspan x="0" y="0" style="letter-spacing: .22em;">T</tspan><tspan x="24.71" y="0" style="letter-spacing: .2em;">H</tspan><tspan x="55.67" y="0">E</tspan></text>
  <g>
    <path d="M0,117h59.81v2.08c-4.53.42-7.79,1.12-9.79,2.08-1.87.91-3.38,2.31-4.53,4.21-1.15,1.9-1.72,3.97-1.72,6.21,0,1.57.15,2.96.45,4.17.3,1.21,1.21,3.84,2.72,7.88l26.82,72.95,26.01-63.98c3.62-9,5.44-15.56,5.44-19.67,0-2.3-.36-4.44-1.09-6.43s-1.69-3.53-2.9-4.62c-1.21-1.03-2.54-1.75-3.99-2.17-1.45-.42-3.32-.64-5.62-.64v-2.08h40.33v2.08c-3.32.3-6.21,1.12-8.65,2.45-2.45,1.33-4.79,3.35-7.02,6.07-1.51,1.93-3.1,4.58-4.76,7.93-1.66,3.35-3.94,8.53-6.84,15.54l-37.16,89.63h-3.81l-36.07-92.62c-4.71-12.14-8.49-19.85-11.33-23.11-1.81-2.05-4.03-3.55-6.66-4.49-2.63-.94-5.85-1.4-9.65-1.4v-2.08Z" style="fill: #fff;"/>
    <path d="M132.31,161.99l26.1-7.06v59.57l.09,6.86c0,4.09.24,7.09.73,8.98.48,1.9,1.42,3.48,2.81,4.74,1.69,1.63,4.8,2.86,9.33,3.7v1.9h-40.06v-1.9c3.62-.48,6.22-1.16,7.79-2.03,1.57-.87,2.84-2.36,3.81-4.46.66-1.38,1.13-3.47,1.4-6.27.27-2.8.41-6.84.41-12.13v-25.85c0-6.19-.15-10.53-.45-13.03-.3-2.5-.97-4.52-1.99-6.09-1.03-1.68-2.26-2.9-3.72-3.65-1.45-.75-3.53-1.22-6.25-1.4v-1.9Z" style="fill: #fff;"/>
    <polygon points="197.26 139.49 126.8 158.51 197.26 115.46 265.78 158.51 197.26 139.49" style="fill: #fff;"/>
    <path d="M204.18,230.33c-.48-1.9-.73-4.9-.73-9.01l-.09-6.88v-68.18l-6.1-1.69-7.58,2.05v67.22c0,5.31-.14,9.37-.41,12.17-.27,2.81-.74,4.9-1.4,6.29-.97,2.11-2.24,3.61-3.81,4.48-1.57.87-4.17,1.55-7.79,2.03v1.9h40.06v-1.9c-4.53-.84-7.64-2.08-9.33-3.71-1.39-1.27-2.33-2.85-2.81-4.75Z" style="fill: #fff;"/>
    <path d="M249.12,230.33c-.48-1.9-.73-4.9-.73-9.01l-.09-6.88v-55.7l-13.68-3.8v58.89c0,5.31-.14,9.37-.41,12.17-.27,2.81-.74,4.9-1.4,6.29-.97,2.11-2.24,3.61-3.81,4.48-1.57.87-4.17,1.55-7.79,2.03v1.9h40.06v-1.9c-4.53-.84-7.64-2.08-9.33-3.71-1.39-1.27-2.33-2.85-2.81-4.75Z" style="fill: #fff;"/>
    <text transform="translate(270.58 240.69)" style="fill: #fff; font-family: BaskOldFace, &apos;Baskerville Old Face&apos;; font-size: 178.81px; letter-spacing: -.01em;"><tspan x="0" y="0">AGE</tspan></text>
  </g>
  <text transform="translate(132.54 281.53)" style="fill: #fff; font-family: Bahnschrift, Bahnschrift; font-size: 35.24px; font-variation-settings: &apos;wght&apos; 400, &apos;wdth&apos; 100;"><tspan x="0" y="0" style="letter-spacing: .23em;">C</tspan><tspan x="29.93" y="0" style="letter-spacing: .24em;">O</tspan><tspan x="61.14" y="0" style="letter-spacing: .25em;">L</tspan><tspan x="90.16" y="0" style="letter-spacing: .26em;">L</tspan><tspan x="119.52" y="0" style="letter-spacing: .25em;">A</tspan><tspan x="151.15" y="0" style="letter-spacing: .24em;">B</tspan><tspan x="182.19" y="0" style="letter-spacing: .24em;">O</tspan><tspan x="213.41" y="0" style="letter-spacing: .23em;">R</tspan><tspan x="244.33" y="0" style="letter-spacing: .23em;">A</tspan><tspan x="275.27" y="0" style="letter-spacing: .27em;">TI</tspan><tspan x="320.95" y="0" style="letter-spacing: .25em;">V</tspan><tspan x="350.61" y="0">E</tspan></text>
  <path d="M134.03,103.94c-9.37,1.58-18.76,1.44-28.07-.46,9.37-1.6,18.76-1.43,28.07.46h0ZM135.6,91.01c-8.72-3.78-17.87-5.9-27.37-6.29,8.72,3.8,17.87,5.89,27.37,6.29h0ZM139.83,78.7c-7.74-5.51-16.25-9.48-25.46-11.84,7.74,5.53,16.26,9.47,25.46,11.84h0ZM146.52,67.53c-6.43-7-13.92-12.66-22.44-16.87,6.42,7.01,13.93,12.64,22.44,16.87h0ZM155.39,57.99c-4.83-8.19-10.99-15.27-18.44-21.17,4.82,8.19,11,15.26,18.44,21.17h0ZM166.05,50.51c-3.02-9.01-7.57-17.22-13.64-24.54,3.01,9.02,7.58,17.22,13.64,24.54h0ZM178.03,45.41c-1.08-9.44-3.82-18.42-8.24-26.84,1.07,9.45,3.84,18.42,8.24,26.84h0ZM190.81,42.91c.9-9.46.09-18.82-2.48-27.97-.92,9.46-.08,18.81,2.48,27.97h0ZM203.83,43.13c2.85-9.07,4-18.39,3.39-27.87-2.86,9.06-3.99,18.39-3.39,27.87h0ZM216.52,46.04c4.67-8.28,7.73-17.15,9.11-26.56-4.69,8.27-7.72,17.16-9.11,26.56h0ZM228.33,51.53c6.29-7.12,11.13-15.17,14.43-24.08-6.3,7.12-11.12,15.18-14.43,24.08h0ZM238.74,59.36c7.64-5.66,14.04-12.52,19.13-20.56-7.65,5.65-14.03,12.53-19.13,20.56h0ZM247.29,69.18c8.65-3.95,16.34-9.33,22.98-16.13-8.65,3.94-16.33,9.34-22.98,16.13h0ZM253.62,80.56c9.28-2.06,17.92-5.73,25.83-11-9.28,2.05-17.92,5.74-25.83,11h0ZM257.44,93.01c9.5-.09,18.72-1.88,27.56-5.39-9.51.08-18.72,1.89-27.56,5.39h0ZM258.59,105.98c9.32,1.89,18.7,2.06,28.07.46-9.31-1.9-18.7-2.04-28.07-.46h0ZM134.53,96.99c-13.88-3.54-28.02-5.38-42.35-5.46,13.88,3.55,28.02,5.36,42.35,5.46h0ZM137.54,84.32c-12.85-6.35-26.29-11.09-40.29-14.15,12.84,6.36,26.29,11.07,40.29,14.15h0ZM143.11,72.55c-11.24-8.88-23.41-16.31-36.47-22.21,11.24,8.89,23.42,16.3,36.47,22.21h0ZM151.01,62.2c-9.15-11.03-19.51-20.82-31.05-29.31,9.14,11.04,19.52,20.81,31.05,29.31h0ZM160.89,53.72c-6.66-12.69-14.75-24.42-24.28-35.13,6.65,12.69,14.76,24.41,24.28,35.13h0ZM172.32,47.47c-3.88-13.79-9.35-26.95-16.44-39.41,3.86,13.8,9.37,26.95,16.44,39.41h0ZM184.8,43.74c-.92-14.3-3.54-28.31-7.89-41.96.91,14.3,3.56,28.31,7.89,41.96h0ZM197.77,42.69c2.07-14.18,2.42-28.43,1-42.69-2.08,14.18-2.4,28.43-1,42.69h0ZM210.69,44.35c4.97-13.44,8.28-27.3,9.86-41.55-4.99,13.44-8.26,27.31-9.86,41.55h0ZM222.98,48.67c7.66-12.11,13.77-24.99,18.28-38.59-7.67,12.1-13.76,24.99-18.28,38.59h0ZM234.1,55.44c10.01-10.25,18.67-21.58,25.9-33.94-10.02,10.25-18.65,21.58-25.9,33.94h0ZM243.57,64.38c11.92-7.95,22.74-17.22,32.4-27.82-11.93,7.94-22.73,17.23-32.4,27.82h0ZM250.97,75.09c13.31-5.3,25.83-12.12,37.47-20.47-13.32,5.28-25.82,12.13-37.47,20.47h0ZM255.99,87.11c14.12-2.41,27.78-6.48,40.91-12.24-14.13,2.4-27.78,6.5-40.91,12.24h0ZM258.39,99.91c14.32.58,28.52-.57,42.56-3.46-14.32-.59-28.52.58-42.56,3.46h0Z" style="fill: #fff;"/>
  <g>
    <g>
      <polygon points="574.72 265.03 574.72 270.8 619.8 267.91 574.72 265.03 574.72 265.03" style="fill: #fff;"/>
      <polygon points="556.92 270.8 556.92 265.03 511.84 267.91 556.92 270.8 556.92 270.8" style="fill: #fff;"/>
      <path d="M567.1,267.91c0-3.56-.76-6.45-1.7-6.45s-1.7,2.89-1.7,6.45.76,6.45,1.7,6.45,1.7-2.89,1.7-6.45Z" style="fill: #fff;"/>
      <polygon points="627.71 270.26 633.14 270.26 635.86 267.91 633.14 265.56 627.71 265.56 625 267.91 627.71 270.26" style="fill: #fff;"/>
    </g>
    <g>
      <polygon points="62.03 265.03 16.96 267.91 62.03 270.8 62.03 265.03 62.03 265.03" style="fill: #fff;"/>
      <polygon points="79.84 270.8 124.91 267.91 79.84 265.03 79.84 270.8 79.84 270.8" style="fill: #fff;"/>
      <path d="M71.35,274.36c.94,0,1.7-2.89,1.7-6.45s-.76-6.45-1.7-6.45-1.7,2.89-1.7,6.45c0,3.56.76,6.45,1.7,6.45Z" style="fill: #fff;"/>
      <polygon points="11.75 267.91 9.04 265.56 3.61 265.56 .9 267.91 3.61 270.26 9.04 270.26 11.75 267.91" style="fill: #fff;"/>
    </g>
  </g>
</svg>