<?xml version="1.0" encoding="UTF-8"?>
<svg id="Layer_1" data-name="Layer 1" xmlns="http://www.w3.org/2000/svg" viewBox="0 0 164.48 194.54">
  <g>
    <path d="M19.34,103.83l26.1-7.06v59.57l.09,6.86c0,4.09.24,7.09.73,8.98.48,1.9,1.42,3.48,2.81,4.74,1.69,1.63,4.8,2.86,9.33,3.7v1.9H18.34v-1.9c3.62-.48,6.22-1.16,7.79-2.03,1.57-.87,2.84-2.36,3.81-4.46.66-1.38,1.13-3.47,1.4-6.27.27-2.8.41-6.84.41-12.13v-25.85c0-6.19-.15-10.53-.45-13.03-.3-2.5-.97-4.52-1.99-6.09-1.03-1.68-2.26-2.9-3.72-3.65-1.45-.75-3.53-1.22-6.25-1.4v-1.9Z" style="fill: #253e58;"/>
    <polygon points="84.29 81.33 13.83 100.35 84.29 57.3 152.81 100.35 84.29 81.33" style="fill: #253e58;"/>
    <path d="M91.2,172.17c-.48-1.9-.73-4.9-.73-9.01l-.09-6.88v-68.18l-6.1-1.69-7.58,2.05v67.22c0,5.31-.14,9.37-.41,12.17-.27,2.81-.74,4.9-1.4,6.29-.97,2.11-2.24,3.61-3.81,4.48-1.57.87-4.17,1.55-7.79,2.03v1.9h40.06v-1.9c-4.53-.84-7.64-2.08-9.33-3.71-1.39-1.27-2.33-2.85-2.81-4.75Z" style="fill: #253e58;"/>
    <path d="M136.15,172.17c-.48-1.9-.73-4.9-.73-9.01l-.09-6.88v-55.7l-13.68-3.8v58.89c0,5.31-.14,9.37-.41,12.17-.27,2.81-.74,4.9-1.4,6.29-.97,2.11-2.24,3.61-3.81,4.48-1.57.87-4.17,1.55-7.79,2.03v1.9h40.06v-1.9c-4.53-.84-7.64-2.08-9.33-3.71-1.39-1.27-2.33-2.85-2.81-4.75Z" style="fill: #253e58;"/>
  </g>
  <path d="M39.92,67.52c-5.87-4.18-12.32-7.19-19.3-8.98,5.87,4.19,12.32,7.18,19.3,8.98h0ZM44.99,59.05c-4.87-5.31-10.56-9.6-17.02-12.79,4.87,5.32,10.56,9.59,17.02,12.79h0ZM51.72,51.82c-3.66-6.21-8.33-11.58-13.98-16.05,3.65,6.21,8.34,11.57,13.98,16.05h0ZM59.8,46.15c-2.29-6.83-5.74-13.06-10.34-18.61,2.28,6.84,5.75,13.05,10.34,18.61h0ZM68.88,42.28c-.82-7.16-2.9-13.97-6.25-20.35.81,7.16,2.91,13.96,6.25,20.35h0ZM78.57,40.39c.69-7.17.07-14.27-1.88-21.21-.7,7.17-.06,14.26,1.88,21.21h0ZM88.45,40.55c2.16-6.87,3.03-13.94,2.57-21.13-2.17,6.87-3.02,13.94-2.57,21.13h0ZM98.07,42.76c3.54-6.27,5.86-13,6.91-20.14-3.55,6.27-5.85,13.01-6.91,20.14h0ZM107.02,46.92c4.77-5.4,8.44-11.5,10.94-18.26-4.78,5.4-8.43,11.51-10.94,18.26h0ZM114.91,52.86c5.79-4.29,10.65-9.5,14.5-15.59-5.8,4.28-10.64,9.5-14.5,15.59h0ZM121.4,60.3c6.56-2.99,12.39-7.07,17.43-12.23-6.56,2.98-12.38,7.08-17.43,12.23h0ZM126.19,68.93c7.03-1.56,13.59-4.34,19.59-8.34-7.04,1.56-13.58,4.35-19.59,8.34h0ZM38.18,71.78c-9.74-4.81-19.93-8.4-30.55-10.73,9.74,4.82,19.94,8.39,30.55,10.73h0ZM42.41,62.86c-8.53-6.73-17.75-12.37-27.65-16.84,8.52,6.74,17.75,12.36,27.65,16.84h0ZM48.4,55.01c-6.94-8.36-14.79-15.79-23.54-22.22,6.93,8.37,14.8,15.78,23.54,22.22h0ZM55.89,48.58c-5.05-9.62-11.19-18.52-18.41-26.63,5.04,9.63,11.19,18.51,18.41,26.63h0ZM64.55,43.85c-2.94-10.46-7.09-20.44-12.47-29.88,2.93,10.46,7.1,20.43,12.47,29.88h0ZM74.01,41.02c-.7-10.84-2.69-21.46-5.98-31.82.69,10.84,2.7,21.46,5.98,31.82h0ZM83.85,40.22c1.57-10.75,1.83-21.55.76-32.37-1.58,10.75-1.82,21.55-.76,32.37h0ZM93.64,41.48c3.77-10.19,6.28-20.7,7.47-31.5-3.78,10.19-6.26,20.7-7.47,31.5h0ZM102.96,44.75c5.81-9.18,10.44-18.94,13.86-29.26-5.82,9.18-10.43,18.95-13.86,29.26h0ZM111.39,49.89c7.59-7.78,14.15-16.36,19.64-25.74-7.6,7.77-14.14,16.37-19.64,25.74h0ZM118.57,56.66c9.04-6.03,17.24-13.06,24.56-21.09-9.05,6.02-17.24,13.07-24.56,21.09h0ZM124.19,64.79c10.09-4.02,19.58-9.19,28.41-15.52-10.1,4.01-19.58,9.2-28.41,15.52h0ZM127.99,73.9c10.71-1.83,21.07-4.92,31.02-9.28-10.71,1.82-21.06,4.93-31.02,9.28h0Z" style="fill: #6facad;"/>
</svg>